<svg xmlns="http://www.w3.org/2000/svg" viewBox="0 0 1400 980" role="img" aria-labelledby="title desc">
  <title id="title">Capstone portfolio wireframe sketch</title>
  <desc id="desc">Low-fidelity black and white wireframes showing a mobile layout, a tablet layout, and a large-screen landing page for the capstone portfolio.</desc>
  <rect width="1400" height="980" fill="#ffffff"/>

  <text x="72" y="84" font-family="Arial, sans-serif" font-size="40" font-weight="700" fill="#111111">Capstone Portfolio Wireframes</text>
  <text x="72" y="122" font-family="Arial, sans-serif" font-size="22" fill="#222222">Low-fidelity sketch showing mobile, tablet, and large-screen views</text>

  <rect x="84" y="172" width="286" height="664" rx="26" fill="none" stroke="#111111" stroke-width="6"/>
  <text x="176" y="874" font-family="Arial, sans-serif" font-size="28" font-weight="700" fill="#111111">Mobile View</text>
  <rect x="112" y="214" width="230" height="40" rx="8" fill="none" stroke="#111111" stroke-width="4"/>
  <text x="182" y="240" font-family="Arial, sans-serif" font-size="18" fill="#111111">Nav</text>
  <rect x="112" y="282" width="230" height="138" rx="14" fill="none" stroke="#111111" stroke-width="4"/>
  <text x="182" y="358" font-family="Arial, sans-serif" font-size="18" fill="#111111">Hero</text>
  <rect x="112" y="448" width="230" height="104" rx="14" fill="none" stroke="#111111" stroke-width="4"/>
  <text x="160" y="506" font-family="Arial, sans-serif" font-size="18" fill="#111111">About Card</text>
  <rect x="112" y="580" width="230" height="104" rx="14" fill="none" stroke="#111111" stroke-width="4"/>
  <text x="152" y="638" font-family="Arial, sans-serif" font-size="18" fill="#111111">Project Card</text>
  <rect x="112" y="712" width="230" height="84" rx="14" fill="none" stroke="#111111" stroke-width="4"/>
  <text x="166" y="760" font-family="Arial, sans-serif" font-size="18" fill="#111111">Footer</text>
  <text x="84" y="914" font-family="Arial, sans-serif" font-size="18" fill="#222222">Single-column stack for easier reading and touch interaction.</text>

  <rect x="466" y="206" width="356" height="584" rx="24" fill="none" stroke="#111111" stroke-width="6"/>
  <text x="578" y="874" font-family="Arial, sans-serif" font-size="28" font-weight="700" fill="#111111">Tablet View</text>
  <rect x="498" y="246" width="292" height="38" rx="8" fill="none" stroke="#111111" stroke-width="4"/>
  <text x="618" y="270" font-family="Arial, sans-serif" font-size="18" fill="#111111">Nav</text>
  <rect x="498" y="312" width="292" height="130" rx="14" fill="none" stroke="#111111" stroke-width="4"/>
  <text x="618" y="384" font-family="Arial, sans-serif" font-size="18" fill="#111111">Hero</text>
  <rect x="498" y="470" width="134" height="176" rx="14" fill="none" stroke="#111111" stroke-width="4"/>
  <rect x="656" y="470" width="134" height="176" rx="14" fill="none" stroke="#111111" stroke-width="4"/>
  <text x="526" y="564" font-family="Arial, sans-serif" font-size="18" fill="#111111">Card</text>
  <text x="684" y="564" font-family="Arial, sans-serif" font-size="18" fill="#111111">Card</text>
  <rect x="498" y="674" width="292" height="74" rx="14" fill="none" stroke="#111111" stroke-width="4"/>
  <text x="612" y="718" font-family="Arial, sans-serif" font-size="18" fill="#111111">Footer</text>
  <text x="454" y="914" font-family="Arial, sans-serif" font-size="18" fill="#222222">Two-column content appears once more horizontal space is available.</text>

  <rect x="910" y="172" width="414" height="664" rx="24" fill="none" stroke="#111111" stroke-width="6"/>
  <text x="1004" y="874" font-family="Arial, sans-serif" font-size="28" font-weight="700" fill="#111111">Large-Screen Landing Page</text>
  <rect x="944" y="214" width="346" height="42" rx="8" fill="none" stroke="#111111" stroke-width="4"/>
  <text x="1080" y="240" font-family="Arial, sans-serif" font-size="18" fill="#111111">Nav</text>
  <rect x="944" y="286" width="194" height="246" rx="14" fill="none" stroke="#111111" stroke-width="4"/>
  <text x="1018" y="414" font-family="Arial, sans-serif" font-size="18" fill="#111111">Hero Copy</text>
  <rect x="1158" y="286" width="132" height="116" rx="14" fill="none" stroke="#111111" stroke-width="4"/>
  <text x="1192" y="350" font-family="Arial, sans-serif" font-size="18" fill="#111111">Image</text>
  <rect x="1158" y="416" width="132" height="116" rx="14" fill="none" stroke="#111111" stroke-width="4"/>
  <text x="1186" y="482" font-family="Arial, sans-serif" font-size="18" fill="#111111">Stats</text>
  <rect x="944" y="564" width="346" height="172" rx="14" fill="none" stroke="#111111" stroke-width="4"/>
  <text x="1048" y="654" font-family="Arial, sans-serif" font-size="18" fill="#111111">Featured Sections</text>
  <text x="914" y="914" font-family="Arial, sans-serif" font-size="18" fill="#222222">Landing page uses a wider editorial layout with side-by-side modules.</text>

  <path d="M370 350h70" fill="none" stroke="#111111" stroke-width="3" stroke-dasharray="10 10"/>
  <path d="M822 350h70" fill="none" stroke="#111111" stroke-width="3" stroke-dasharray="10 10"/>
  <text x="388" y="336" font-family="Arial, sans-serif" font-size="16" fill="#111111">More columns</text>
  <text x="842" y="336" font-family="Arial, sans-serif" font-size="16" fill="#111111">Landing layout</text>
</svg>
